<svg version="1.2" baseProfile="tiny-ps" xmlns="http://www.w3.org/2000/svg" viewBox="0 0 156 20" width="156" height="20">
	<title>forms-gov-svg</title>
	<style>
		tspan { white-space:pre }
		.shp0 { fill: #b51e23 } 
		.shp1 { fill: #e21d3e } 
		.shp2 { fill: #a41e23 } 
		.shp3 { fill: #ffffff } 
	</style>
	<g id="Layer">
		<g id="Layer">
			<g id="Layer">
				<path id="Layer" class="shp0" d="M12.07 5.25C11.94 5.25 11.83 5.22 11.72 5.17L11.31 4.57L11.31 0.17L11.28 0L0.76 0C0.34 0 0 0.36 0 0.8L0 19.13C0 19.57 0.34 19.93 0.76 19.93L15.25 19.93L12.21 16.45L10.43 19.54L8.45 9.53L17.05 13.49L17.05 5.25L12.07 5.25Z" />
				<path id="Layer" class="shp0" d="M17.05 18.12L17.05 13.77L14.14 14.81L17.05 18.12Z" />
			</g>
			<path id="Layer" class="shp1" d="M11.28 0L11.28 0L11.28 0L11.28 0Z" />
			<path id="Layer" class="shp2" d="M11.73 5.18L17.05 10.28L17.05 5.25L11.73 5.18Z" />
			<path id="Layer" class="shp1" d="M11.28 0L11.28 0L11.22 4.44C11.21 4.89 11.6 5.25 12.07 5.25L17.05 5.25L17.05 5.25L11.28 0Z" />
		</g>
		<g id="Layer">
			<path id="Layer" class="shp3" d="M17.05 18.12L14.14 14.81L17.05 13.77L17.05 13.48L8.45 9.52L10.43 19.53L12.21 16.44L15.25 19.92L16.31 19.92C16.72 19.92 17.06 19.59 17.06 19.17L17.05 18.12Z" />
		</g>
	</g>
	<g id="Layer">
		<path id="Layer" class="shp3" d="M29.35 5.84L29.35 9.4L35.59 9.4L35.59 11.9L29.35 11.9L29.35 16.81L26.23 16.81L26.23 3.34L36.42 3.34L36.42 5.84L29.35 5.84Z" />
		<path id="Layer" fill-rule="evenodd" class="shp3" d="M38.41 10.08C38.41 6.07 41.53 3.11 45.79 3.11C50.03 3.11 53.17 6.06 53.17 10.08C53.17 14.1 50.03 17.05 45.79 17.05C41.53 17.05 38.41 14.08 38.41 10.08ZM50 10.08C50 7.52 48.19 5.77 45.78 5.77C43.37 5.77 41.56 7.52 41.56 10.08C41.56 12.64 43.37 14.39 45.78 14.39C48.19 14.39 50 12.64 50 10.08Z" />
		<path id="Layer" fill-rule="evenodd" class="shp3" d="M64.96 16.82L62.36 13.07L59.49 13.07L59.49 16.82L56.37 16.82L56.37 3.34L62.2 3.34C65.8 3.34 68.05 5.21 68.05 8.23C68.05 10.25 67.03 11.73 65.28 12.49L68.3 16.82L64.96 16.82ZM62.03 5.88L59.49 5.88L59.49 10.58L62.03 10.58C63.94 10.58 64.9 9.69 64.9 8.23C64.9 6.75 63.94 5.88 62.03 5.88Z" />
		<path id="Layer" class="shp3" d="M83.65 16.82L83.63 8.73L79.66 15.39L78.25 15.39L74.31 8.9L74.31 16.81L71.38 16.81L71.38 3.34L73.96 3.34L79.01 11.72L83.98 3.34L86.54 3.34L86.58 16.82L83.65 16.82Z" />
		<path id="Layer" class="shp3" d="M89.58 15.49L90.64 13.14C91.78 13.97 93.47 14.55 95.09 14.55C96.94 14.55 97.69 13.93 97.69 13.11C97.69 10.59 89.85 12.32 89.85 7.31C89.85 5.02 91.7 3.11 95.53 3.11C97.22 3.11 98.96 3.51 100.21 4.3L99.25 6.67C98 5.96 96.71 5.61 95.51 5.61C93.66 5.61 92.95 6.3 92.95 7.15C92.95 9.63 100.79 7.92 100.79 12.87C100.79 15.12 98.92 17.05 95.07 17.05C92.93 17.05 90.77 16.41 89.58 15.49Z" />
		<path id="Layer" class="shp3" d="M103.23 15.08C103.23 13.96 104.06 13.23 105.1 13.23C106.14 13.23 106.97 13.96 106.97 15.08C106.97 16.18 106.14 16.97 105.1 16.97C104.05 16.97 103.23 16.18 103.23 15.08Z" />
		<path id="Layer" class="shp3" d="M118.8 9.87L121.65 9.87L121.65 15.34C120.17 16.46 118.13 17.05 116.2 17.05C111.96 17.05 108.84 14.14 108.84 10.08C108.84 6.02 111.96 3.11 116.25 3.11C118.62 3.11 120.58 3.92 121.89 5.44L119.89 7.29C118.91 6.25 117.77 5.77 116.4 5.77C113.78 5.77 111.99 7.52 111.99 10.08C111.99 12.6 113.78 14.39 116.36 14.39C117.21 14.39 118 14.24 118.79 13.81L118.79 9.87L118.8 9.87Z" />
		<path id="Layer" fill-rule="evenodd" class="shp3" d="M124.56 10.08C124.56 6.07 127.68 3.11 131.94 3.11C136.18 3.11 139.32 6.06 139.32 10.08C139.32 14.1 136.18 17.05 131.94 17.05C127.68 17.05 124.56 14.08 124.56 10.08ZM136.15 10.08C136.15 7.52 134.34 5.77 131.93 5.77C129.52 5.77 127.71 7.52 127.71 10.08C127.71 12.64 129.52 14.39 131.93 14.39C134.34 14.39 136.15 12.64 136.15 10.08Z" />
		<path id="Layer" class="shp3" d="M155.03 3.34L149.2 16.82L146.12 16.82L140.3 3.34L143.67 3.34L147.77 12.97L151.93 3.34L155.03 3.34Z" />
	</g>
</svg>